<svg width="20" height="20" viewBox="0 0 30 30" fill="none" xmlns="http://www.w3.org/2000/svg">
<path d="M14.3266 26.4539C12.6798 26.4539 11.1691 26.4539 10.7903 26.4539L9.3877 28.8612C10.986 29.5408 12.7329 29.9384 14.566 29.9929L16.4099 27.7918L14.3266 26.4539Z" fill="#00B7A0"/>
<path d="M14.9994 27.8544C14.9994 27.8544 14.1875 28.7146 14.5655 29.9929C14.7097 29.9972 14.8542 30 14.9995 30C16.991 30 18.8877 29.5942 20.6118 28.8612L19.2092 26.4539C18.6942 26.4539 16.402 26.4539 14.3262 26.4539L14.9994 27.8544Z" fill="#3ECD8D"/>
<path d="M17.2831 19.9729L15.0961 17.0903L12.7171 19.9729L11.5156 25.0876L15 26.7119L17.6754 21.6429L17.2831 19.9729Z" fill="#FEA53D"/>
<path d="M17.6753 21.6428H16.866C15.881 21.6428 15.0758 22.4286 15.0518 23.4133L15 25.5357L17.1109 26.7118L18.4845 25.0874L17.6753 21.6428Z" fill="#FFC242"/>
<path d="M14.9998 25.5358C13.8305 25.5358 12.6639 25.3861 11.5322 25.0909C10.9131 24.9296 10.2795 25.3005 10.1179 25.9201C9.9563 26.5396 10.3275 27.1728 10.9471 27.3344C12.2696 27.6794 13.6331 27.8543 14.9998 27.8543L15.6099 26.4537L14.9998 25.5358Z" fill="#FFC242"/>
<path d="M15.0001 27.8544C14.3598 27.8544 13.8408 27.3354 13.8408 26.6951C13.8408 26.0549 14.3598 25.5359 15.0001 25.5359C16.1694 25.5359 17.3361 25.3862 18.4678 25.091C19.0872 24.9295 19.7205 25.3006 19.8821 25.9202C20.0437 26.5397 19.6725 27.1729 19.053 27.3345C17.7304 27.6795 16.3668 27.8544 15.0001 27.8544Z" fill="#FEF156"/>
<path d="M10.8119 12.1001L8.65405 14.162C8.40954 15.5877 7.74075 19.4869 7.49448 20.9229C7.42528 21.3265 7.60246 21.6822 7.88758 21.8894L13.5854 16.741L16.0854 11.2615L10.8119 12.1001Z" fill="#FFC242"/>
<path d="M9.66925 8.57712L3.49183 8.36108C3.38291 8.69624 3.44865 9.08823 3.74185 9.37405C4.20222 9.82282 8.21056 13.73 8.65394 14.1622L14.9998 12.1002L9.66925 8.57712Z" fill="#FEA53D"/>
<path d="M15 12.1001L7.8877 21.8894C8.17275 22.0965 8.56568 22.1551 8.92814 21.9648L15 18.7725L16.3492 16.1833L15 12.1001Z" fill="#FFDA4C"/>
<path d="M13.5075 7.99121L11.0782 6.70215L4.28965 7.68857C3.88447 7.74752 3.60105 8.02596 3.49219 8.36111L15.0002 12.1003L13.5075 7.99121Z" fill="#FFC242"/>
<path d="M19.5425 15.6082L15 12.1001V18.7725L21.0719 21.9647C21.4343 22.1551 21.8272 22.0965 22.1123 21.8894L19.5425 15.6082Z" fill="#FFC242"/>
<path d="M15 0C14.6476 0 14.2952 0.183574 14.1139 0.55084C13.4954 1.8041 11.7004 5.44107 11.0781 6.70213L15 12.1002L16.7423 5.64738L15 0Z" fill="#FFDA4C"/>
<path d="M22.5054 20.9229C22.4351 20.513 21.415 14.5653 21.3459 14.162L19.3863 12.4637L15 12.1001L22.1123 21.8894C22.3975 21.6822 22.5746 21.3265 22.5054 20.9229Z" fill="#FFDA4C"/>
<path d="M15.8861 0.55084C15.7049 0.183574 15.3524 0 15 0V12.1002L18.922 8.60637V6.70207L15.8861 0.55084Z" fill="#FEF156"/>
<path d="M26.508 8.36108L20.0699 9.16306L15 12.1002L21.3459 14.1621C21.7863 13.7328 25.794 9.82634 26.258 9.37399C26.5512 9.08823 26.6169 8.6963 26.508 8.36108Z" fill="#FEF156"/>
<path d="M25.7103 7.68857C24.3468 7.49041 20.3602 6.91115 18.922 6.70215L15 12.1003L26.508 8.36105C26.3991 8.0259 26.1155 7.7474 25.7103 7.68857Z" fill="#FFFBB3"/>
</svg>
