<svg width="40" height="40" viewBox="0 0 50 49" fill="none" xmlns="http://www.w3.org/2000/svg">
<path d="M4.99456e-07 24.5C4.00673e-07 29.3456 1.46622 34.0825 4.21326 38.1115C6.96029 42.1405 10.8648 45.2807 15.4329 47.135C20.0011 48.9894 25.0277 49.4746 29.8773 48.5292C34.7268 47.5839 39.1814 45.2505 42.6777 41.8241C46.174 38.3977 48.555 34.0322 49.5196 29.2797C50.4842 24.5272 49.9892 19.601 48.097 15.1243C46.2048 10.6475 43.0005 6.82109 38.8892 4.12899C34.778 1.4369 29.9445 4.42515e-06 25 4.32435e-06C18.372 0.0076641 12.0177 2.59137 7.33097 7.18435C2.64425 11.7773 0.00781988 18.0045 4.99456e-07 24.5ZM22.0614 11.789L33.425 22.9253C33.8511 23.343 34.0904 23.9094 34.0904 24.5C34.0904 25.0906 33.8511 25.657 33.425 26.0747L22.0614 37.211C21.6327 37.6168 21.0586 37.8413 20.4627 37.8362C19.8668 37.8311 19.2968 37.5969 18.8754 37.1839C18.454 36.771 18.215 36.2123 18.2098 35.6283C18.2047 35.0444 18.4337 34.4817 18.8477 34.0617L28.6045 24.5L18.8477 14.9383C18.4337 14.5183 18.2047 13.9556 18.2098 13.3717C18.215 12.7877 18.454 12.229 18.8754 11.8161C19.2968 11.4031 19.8668 11.1689 20.4627 11.1638C21.0586 11.1587 21.6327 11.3832 22.0614 11.789Z" fill="white"/>
</svg>
