<svg width="38" height="37" viewBox="0 0 38 37" fill="none" xmlns="http://www.w3.org/2000/svg">
<path d="M3.77141e-07 18.5C3.02549e-07 22.1589 1.11433 25.7357 3.20208 28.778C5.28982 31.8204 8.25722 34.1915 11.729 35.5918C15.2008 36.992 19.0211 37.3583 22.7067 36.6445C26.3923 35.9307 29.7778 34.1687 32.435 31.5815C35.0922 28.9942 36.9018 25.6978 37.6349 22.1092C38.368 18.5205 37.9918 14.8008 36.5537 11.4204C35.1156 8.03992 32.6804 5.15062 29.5558 3.11781C26.4313 1.085 22.7578 4.63941e-07 19 3.87333e-07C13.9627 0.00578718 9.13344 1.95675 5.57153 5.42492C2.00963 8.89308 0.00594311 13.5953 3.77141e-07 18.5ZM16.7666 8.90186L25.403 17.311C25.7268 17.6263 25.9087 18.054 25.9087 18.5C25.9087 18.946 25.7268 19.3737 25.403 19.689L16.7666 28.0981C16.4409 28.4045 16.0046 28.574 15.5517 28.5702C15.0988 28.5663 14.6656 28.3895 14.3453 28.0776C14.0251 27.7658 13.8434 27.344 13.8395 26.903C13.8355 26.4621 14.0096 26.0372 14.3243 25.72L21.7395 18.5L14.3243 11.28C14.0096 10.9628 13.8355 10.5379 13.8395 10.097C13.8434 9.65599 14.0251 9.23417 14.3453 8.92235C14.6656 8.61053 15.0988 8.43365 15.5517 8.42982C16.0046 8.42599 16.4409 8.5955 16.7666 8.90186Z" fill="#7D2558"/>
</svg>
