<svg width="15" height="16" viewBox="0 0 15 16" fill="none" xmlns="http://www.w3.org/2000/svg">
<path d="M7.49989 12.643C10.2613 12.643 12.4998 10.3788 12.4998 7.58578C12.4998 4.79276 10.2613 2.52856 7.49989 2.52856C4.73853 2.52856 2.5 4.79276 2.5 7.58578C2.5 10.3788 4.73853 12.643 7.49989 12.643Z" fill="#FEBC30"/>
<path d="M7.5 15.1718C3.36443 15.1718 0 11.7688 0 7.58589C0 3.403 3.36443 0 7.5 0C11.6356 0 15 3.403 15 7.58589C15 11.7688 11.6356 15.1718 7.5 15.1718ZM7.5 1.20954C4.02385 1.20954 1.19583 4.06998 1.19583 7.58589C1.19583 11.1018 4.02385 13.9622 7.5 13.9622C10.9762 13.9622 13.8042 11.1018 13.8042 7.58589C13.8042 4.06998 10.9762 1.20954 7.5 1.20954Z" fill="#FEBC30"/>
</svg>
