<svg width="20" height="20" viewBox="0 0 30 30" fill="none" xmlns="http://www.w3.org/2000/svg">
                <g clip-path="url(#clip0_78_478)">
                <path d="M15 30C6.71573 30 0 23.2843 0 15C0 6.71573 6.71573 0 15 0C23.2843 0 30 6.71573 30 15C30 23.2843 23.2843 30 15 30Z" fill="#41A5EE"/>
                <path d="M14.9997 6C18.3135 6 21 9.02702 21 12.7609C21 15.1747 18.4924 19.9081 16.7197 22.9537C15.9077 24.3488 14.0923 24.3488 13.2803 22.9537C11.507 19.9081 9 15.1747 9 12.7609C9 9.02702 11.6865 6 15.0003 6H14.9997ZM14.9997 15.6667C16.4242 15.6667 17.5787 14.3659 17.5787 12.7609C17.5787 11.1558 16.4242 9.85503 14.9997 9.85503C13.5753 9.85503 12.4208 11.1558 12.4208 12.7609C12.4208 14.3659 13.5753 15.6667 14.9997 15.6667Z" fill="white"/>
                </g>
                <defs>
                <clipPath id="clip0_78_478">
                <rect width="30" height="30" fill="white" transform="matrix(-1 0 0 1 30 0)"/>
                </clipPath>
                </defs>
                </svg>
                