<svg width="16" height="16" viewBox="0 0 16 16" fill="none" xmlns="http://www.w3.org/2000/svg">
<path d="M6.03027 12.0117V15.175C6.03027 15.3959 6.1659 15.5917 6.36673 15.6612C6.41694 15.6783 6.46845 15.6865 6.51931 15.6865C6.67189 15.6865 6.81925 15.6115 6.91314 15.4778L8.68215 12.9597L6.03027 12.0117Z" fill="#1B1B1B"/>
<path d="M15.769 0.0948621C15.619 -0.0163082 15.4221 -0.0313128 15.2591 0.0580327L0.587999 8.07184C0.414555 8.16664 0.312183 8.36034 0.326528 8.56426C0.341525 8.76887 0.471283 8.94347 0.655812 9.00963L4.73436 10.4678L13.4203 2.69952L6.69898 11.1696L13.5344 13.6133C13.5852 13.631 13.6387 13.6406 13.6922 13.6406C13.7809 13.6406 13.8689 13.6153 13.9465 13.5662C14.0704 13.4871 14.1545 13.3541 14.176 13.2048L15.9691 0.587285C15.9959 0.396318 15.9189 0.206714 15.769 0.0948621Z" fill="#1B1B1B"/>
</svg>
