<svg width="20" height="20" viewBox="0 0 24 24" fill="none" xmlns="http://www.w3.org/2000/svg">
<g clip-path="url(#clip0_34_506)">
<path d="M21.7031 3.97086C21.4944 3.56815 21.1468 3.25473 20.7248 3.08867C17.9123 1.99789 15.1467 0.956794 12.4504 0.0685129C12.1766 -0.0228376 11.8805 -0.0228376 11.6067 0.0685129C8.91087 0.95445 6.14572 1.99367 3.33369 3.08304C2.96307 3.23044 2.64911 3.49218 2.43743 3.83023C2.4529 3.83258 1.859 5.68648 1.75822 9.78336C1.69587 13.8751 2.20587 15.1027 2.189 15.1041C2.46462 16.0037 2.98119 16.9196 3.72181 17.8505C4.54915 18.8902 5.66712 19.9641 7.01712 21.0202C9.25306 22.7748 11.3451 23.8234 11.4327 23.8604C11.6187 23.9526 11.8234 24.0006 12.0309 24.0006C12.2384 24.0006 12.4431 23.9526 12.629 23.8604C12.7171 23.8234 14.8115 22.7715 17.046 21.0174C18.3965 19.9609 19.5149 18.887 20.3427 17.8477C21.1359 16.8507 21.6721 15.8724 21.9313 14.9115C21.921 14.9115 22.296 13.4063 22.244 9.96008C22.1779 6.5157 21.6979 3.97273 21.7031 3.97086Z" fill="#2AD352"/>
<path d="M12.0309 0.000244207C11.8875 0.000198955 11.7451 0.0231466 11.609 0.068213C8.91322 0.95415 6.14806 1.99337 3.33603 3.08274C2.96448 3.22984 2.64964 3.49179 2.43743 3.8304C2.4529 3.83274 1.859 5.68665 1.75822 9.78353C1.69587 13.8752 2.20587 15.1029 2.189 15.1043C2.46462 16.0038 2.98119 16.9198 3.72181 17.8507C3.93681 18.121 4.17119 18.3937 4.42494 18.6687C4.8215 18.7046 5.2229 18.7229 5.62915 18.7235C12.8427 18.7235 18.6909 12.8754 18.6909 5.66181C18.6918 4.46548 18.5285 3.27469 18.2057 2.12274C16.2585 1.38681 14.3376 0.690244 12.4509 0.0686817C12.3154 0.0237005 12.1736 0.000598234 12.0309 0.000244207Z" fill="#74DA7F"/>
<path d="M17.9062 9.67076C15.922 11.714 13.8825 13.8534 11.8837 15.9651C11.7215 16.1374 11.5257 16.2746 11.3085 16.3683C11.0912 16.4621 10.8571 16.5104 10.6205 16.5103H10.6125C10.3757 16.5076 10.1418 16.4577 9.92444 16.3635C9.70712 16.2694 9.51077 16.1328 9.34687 15.9619C8.27671 14.8542 7.19906 13.7489 6.12843 12.6647C5.44359 11.9728 5.46468 10.8834 6.17249 10.207C6.8803 9.5306 7.99593 9.52685 8.67281 10.2215C9.30906 10.8731 9.94765 11.5294 10.5886 12.1903C12.1767 10.5244 13.7709 8.84529 15.323 7.21404C15.9825 6.51982 17.085 6.52826 17.8026 7.21404C18.5203 7.89982 18.5709 8.98591 17.9062 9.67076Z" fill="white"/>
</g>
<defs>
<clipPath id="clip0_34_506">
<rect width="24" height="24" fill="white"/>
</clipPath>
</defs>
</svg>
