<svg width="53" height="53" viewBox="0 0 63 63" fill="none" xmlns="http://www.w3.org/2000/svg">
<g clip-path="url(#clip0_213_4)">
<path d="M31.5 63C48.897 63 63 48.897 63 31.5C63 14.103 48.897 0 31.5 0C14.103 0 0 14.103 0 31.5C0 48.897 14.103 63 31.5 63Z" fill="#32BA7C"/>
<path d="M23.4512 45.7098L39.6483 61.9069C53.0632 58.3297 63.0001 46.1073 63.0001 31.5C63.0001 31.2019 63.0001 30.9038 63.0001 30.6057L50.2808 18.8801L23.4512 45.7098Z" fill="#0AA06E"/>
<path d="M32.2942 38.5551C33.6853 39.9463 33.6853 42.3311 32.2942 43.7223L29.4125 46.604C28.0213 47.9952 25.6364 47.9952 24.2453 46.604L11.6254 33.8848C10.2342 32.4936 10.2342 30.1087 11.6254 28.7176L14.5071 25.8359C15.8983 24.4447 18.2831 24.4447 19.6743 25.8359L32.2942 38.5551Z" fill="white"/>
<path d="M43.3245 16.5946C44.7157 15.2035 47.1005 15.2035 48.4917 16.5946L51.3734 19.4763C52.7646 20.8675 52.7646 23.2524 51.3734 24.6435L29.5122 46.4054C28.121 47.7965 25.7362 47.7965 24.345 46.4054L21.4633 43.5237C20.0721 42.1325 20.0721 39.7476 21.4633 38.3565L43.3245 16.5946Z" fill="white"/>
</g>
<defs>
<clipPath id="clip0_213_4">
<rect width="63" height="63" fill="white"/>
</clipPath>
</defs>
</svg>
