<svg width="20" height="20" viewBox="0 0 30 30" fill="none" xmlns="http://www.w3.org/2000/svg">
<g clip-path="url(#clip0_78_425)">
<path d="M29.9998 15.0001C29.9998 17.2789 29.4916 19.4395 28.5819 21.3742C28.2071 22.1719 27.7633 22.9317 27.2594 23.645C27.0274 23.9738 26.7819 24.2927 26.5247 24.6013C26.4427 24.6993 26.36 24.7966 26.2755 24.8927C25.948 25.2656 25.602 25.6225 25.239 25.9611C25.0596 26.1294 24.8759 26.2929 24.688 26.4521C24.5385 26.5788 24.3861 26.7031 24.2312 26.8237C23.8755 27.1017 23.5069 27.3643 23.1267 27.6098C22.8427 27.7935 22.5518 27.968 22.2543 28.132C22.073 28.2325 21.8893 28.3298 21.7032 28.4223C20.6643 28.9427 19.5567 29.3449 18.3972 29.6131C18.2166 29.6553 18.0347 29.6939 17.8516 29.7294C17.8498 29.7299 17.8479 29.7299 17.8461 29.7306C17.5884 29.7802 17.3282 29.8231 17.0661 29.8591C16.3908 29.9516 15.7008 29.9999 14.9998 29.9999C14.8308 29.9999 14.6625 29.9969 14.4947 29.9914C13.967 29.9742 13.446 29.9296 12.9335 29.8591C12.6708 29.8231 12.4107 29.7802 12.1529 29.7299C12.1517 29.7299 12.1499 29.7299 12.148 29.7294C11.965 29.6939 11.7825 29.6553 11.6019 29.6131C10.4423 29.3449 9.33481 28.942 8.29582 28.4216C8.10973 28.3291 7.92604 28.2324 7.7448 28.132C7.44785 27.9673 7.15705 27.7935 6.87299 27.6098C6.62256 27.4481 6.37705 27.2792 6.1377 27.1035C6.01277 27.0123 5.88973 26.9186 5.7685 26.8237C5.45256 26.5764 5.14647 26.3167 4.85197 26.0455C4.664 25.8728 4.48037 25.6959 4.30154 25.5135C4.1032 25.312 3.91031 25.1051 3.72422 24.8927C3.37523 24.4947 3.04647 24.0784 2.74037 23.6449C2.00016 22.5974 1.39037 21.4501 0.936094 20.228C0.566309 19.2325 0.29877 18.1874 0.146895 17.1056C0.0924023 16.7174 0.0526172 16.3244 0.0287109 15.9277C0.00978516 15.6209 0 15.3117 0 15.0001C0 14.7883 0.00427734 14.5771 0.0134766 14.3671C0.0349219 13.8387 0.0844922 13.3177 0.159785 12.8053C0.236953 12.275 0.342832 11.754 0.473848 11.2434C2.1416 4.77751 8.01305 0.000244141 14.9999 0.000244141C20.3368 0.000244141 25.0223 2.78714 27.6807 6.98532C28.5789 8.40329 29.2455 9.98222 29.6282 11.669C29.7684 12.2879 29.8707 12.9216 29.9319 13.5675C29.9772 14.0389 29.9998 14.5171 29.9998 15.0001Z" fill="#34ABE0"/>
<path d="M20.544 6.11464C20.544 5.68351 20.1945 5.33399 19.7634 5.33399H19.5032C19.072 5.33399 18.7225 4.98448 18.7225 4.55335C18.7225 4.12222 18.373 3.77271 17.9419 3.77271H5.97205C5.54092 3.77271 5.19141 4.12222 5.19141 4.55335C5.19141 4.98448 5.54092 5.33399 5.97205 5.33399H10.7861C11.2172 5.33399 11.5667 5.68351 11.5667 6.11464C11.5667 6.54577 11.2172 6.89528 10.7861 6.89528H8.59354C8.1624 6.89528 7.81289 7.2448 7.81289 7.67593C7.81289 8.10706 8.1624 8.45657 8.59354 8.45657H9.25588C9.68701 8.45657 10.0365 8.80608 10.0365 9.23722C10.0365 9.66835 9.68701 10.0179 9.25588 10.0179H6.88283C6.4517 10.0179 6.10219 10.3674 6.10219 10.7985C6.10219 11.2296 6.4517 11.5792 6.88283 11.5792H18.1254C18.5565 11.5792 18.906 11.2296 18.906 10.7985C18.906 10.3674 19.2555 10.0179 19.6867 10.0179H19.7634C20.1945 10.0179 20.544 9.66835 20.544 9.23722C20.544 8.80608 20.1945 8.45657 19.7634 8.45657H18.3322C17.9011 8.45657 17.5516 8.10706 17.5516 7.67593C17.5516 7.2448 17.9011 6.89528 18.3322 6.89528H19.7634C20.1946 6.89522 20.544 6.54577 20.544 6.11464Z" fill="#78CAEF"/>
<path d="M8.90139 13.5858C8.90139 14.0168 8.5524 14.3664 8.1208 14.3664H7.90406C7.68855 14.3664 7.49326 14.4539 7.35182 14.5954C7.21102 14.7362 7.12348 14.9315 7.12348 15.147C7.12348 15.578 6.77391 15.9276 6.34289 15.9276H0.0287695C0.00978516 15.6208 0 15.3116 0 15C0 14.7882 0.00427734 14.577 0.0134766 14.367C0.0214453 14.3664 0.03 14.3664 0.0379688 14.3664H0.254707C0.470215 14.3664 0.665508 14.2789 0.806953 14.1374C0.947754 13.9966 1.03529 13.8013 1.03529 13.5858C1.03529 13.1542 0.685723 12.8052 0.254707 12.8052H0.159785C0.236953 12.275 0.342832 11.754 0.473848 11.2434H4.70502C5.13662 11.2434 5.48625 11.593 5.48625 12.024C5.48625 12.4557 5.83523 12.8052 6.26684 12.8052H8.12068C8.33619 12.8052 8.53148 12.8922 8.67293 13.0336C8.81385 13.175 8.90139 13.3696 8.90139 13.5858Z" fill="#78CAEF"/>
<path d="M29.6284 11.6686H27.788C27.5725 11.6686 27.3772 11.5811 27.2364 11.4396C27.095 11.2988 27.0074 11.1035 27.0074 10.888C27.0074 10.457 26.6579 10.1075 26.2268 10.1075H22.4971C22.281 10.1075 22.0862 10.0199 21.9448 9.87847C21.8034 9.73766 21.7158 9.54237 21.7158 9.32687C21.7158 8.89585 22.0654 8.54628 22.4971 8.54628H25.0121C25.2282 8.54628 25.4229 8.45874 25.5644 8.31729C25.7058 8.17649 25.7927 7.9812 25.7927 7.76569C25.7927 7.33468 26.1423 6.98511 26.5739 6.98511H27.6809C28.579 8.4029 29.2457 9.98188 29.6284 11.6686Z" fill="#78CAEF"/>
<path d="M27.5194 17.6879C27.5194 17.2567 27.1699 16.9072 26.7388 16.9072H19.3226C18.8914 16.9072 18.542 17.2567 18.542 17.6878C18.542 18.1189 18.8914 18.4685 19.3226 18.4685H20.5586C20.9897 18.4685 21.3391 18.8179 21.3391 19.249V19.2491C21.3391 19.6802 21.6886 20.0297 22.1197 20.0297H28.2998C28.731 20.0297 29.0804 19.6802 29.0804 19.2491V19.249C29.0804 18.8179 28.731 18.4685 28.2998 18.4685C27.8688 18.4685 27.5194 18.1189 27.5194 17.6879Z" fill="#78CAEF"/>
<path d="M24.2313 14.6641V26.8237C23.8755 27.1017 23.507 27.3643 23.1268 27.6098C22.8427 27.7935 22.5519 27.968 22.2543 28.1321C22.0731 28.2325 21.8894 28.3298 21.7033 28.4223C20.6643 28.9427 19.5568 29.345 18.3972 29.6131C18.2166 29.6553 18.0347 29.6939 17.8517 29.7294C17.8499 29.73 17.848 29.73 17.8462 29.7306C17.5884 29.7802 17.3282 29.8231 17.0662 29.8592C16.3909 29.9516 15.7009 30 14.9999 30C14.8309 30 14.6626 29.9969 14.4948 29.9914C13.967 29.9743 13.446 29.9296 12.9336 29.8592C12.6709 29.8231 12.4107 29.7802 12.153 29.73C12.1518 29.73 12.1499 29.73 12.1481 29.7294C11.965 29.6939 11.7826 29.6553 11.602 29.6131C10.4424 29.3449 9.33486 28.9421 8.29588 28.4216C8.10978 28.3292 7.92609 28.2324 7.74486 28.1321C7.44791 27.9674 7.15711 27.7935 6.87305 27.6098C6.62262 27.4482 6.37711 27.2792 6.13775 27.1035C6.01283 27.0123 5.88979 26.9186 5.76855 26.8237V14.6641H24.2313Z" fill="#C4B59F"/>
<path d="M26.1477 12.281H4.47559V16.23H26.1477V12.281Z" fill="#B7A792"/>
<path d="M14.9999 4.28589L0 13.2914H29.9998L14.9999 4.28589Z" fill="#E8DBC4"/>
<path d="M7.60789 13.2913H2.00586V15.4035H7.60789V13.2913Z" fill="#D6C8B0"/>
<path d="M7.60719 14.3013H3.6582V15.4033H7.60719V14.3013Z" fill="#E8DBC4"/>
<path d="M6.87285 15.4036V27.6098C6.62242 27.4482 6.37691 27.2792 6.13756 27.1035C6.01264 27.0123 5.88959 26.9186 5.76836 26.8237C5.45242 26.5764 5.14633 26.3168 4.85184 26.0455C4.66387 25.8729 4.48023 25.696 4.30141 25.5135C4.10307 25.3121 3.91018 25.1052 3.72408 24.8927C3.3751 24.4947 3.04633 24.0784 2.74023 23.645V15.4036H6.87285Z" fill="#D6C8B0"/>
<path d="M6.8732 16.9648V27.6099C6.62277 27.4482 6.37727 27.2793 6.13791 27.1036C6.01299 27.0123 5.88994 26.9186 5.76871 26.8238C5.45277 26.5764 5.14668 26.3168 4.85219 26.0456C4.66422 25.8729 4.48059 25.696 4.30176 25.5136V16.9648H6.8732Z" fill="#E8DBC4"/>
<path d="M6.13826 19.1687V27.1034C6.01334 27.0121 5.89029 26.9184 5.76906 26.8236C5.45313 26.5762 5.14703 26.3166 4.85254 26.0454V19.1687C4.85254 18.8136 5.14029 18.5259 5.49537 18.5259C5.59334 18.5259 5.6858 18.5479 5.76906 18.5871C5.83639 18.6189 5.89826 18.6624 5.95029 18.7144C6.0666 18.8307 6.13826 18.9911 6.13826 19.1687Z" fill="#F9EED7"/>
<path d="M17.8012 13.2913H12.1992V15.4035H17.8012V13.2913Z" fill="#D6C8B0"/>
<path d="M17.8005 14.3013H13.8516V15.4033H17.8005V14.3013Z" fill="#E8DBC4"/>
<path d="M17.0662 15.4036V29.8592C16.3909 29.9516 15.7009 30 14.9999 30C14.8309 30 14.6626 29.9969 14.4948 29.9914C13.9671 29.9742 13.4461 29.9296 12.9336 29.8592V15.4036H17.0662Z" fill="#D6C8B0"/>
<path d="M17.0665 16.9648V29.8593C16.3912 29.9517 15.7012 30.0001 15.0002 30.0001C14.8312 30.0001 14.6629 29.997 14.4951 29.9915V16.9648H17.0665Z" fill="#E8DBC4"/>
<path d="M15.6887 28.7191C15.3337 28.7191 15.0459 28.4313 15.0459 28.0764V19.1687C15.0459 18.8136 15.3337 18.5259 15.6887 18.5259C16.0437 18.5259 16.3314 18.8137 16.3314 19.1687V28.0763C16.3316 28.4314 16.0438 28.7191 15.6887 28.7191Z" fill="#F9EED7"/>
<path d="M27.9946 13.2913H22.3926V15.4035H27.9946V13.2913Z" fill="#D6C8B0"/>
<path d="M27.9939 14.3013H24.0449V15.4033H27.9939V14.3013Z" fill="#E8DBC4"/>
<path d="M27.2596 15.4036V23.645C27.0276 23.9738 26.7821 24.2928 26.5249 24.6013C26.4429 24.6993 26.3602 24.7966 26.2757 24.8928C25.9482 25.2656 25.6022 25.6225 25.2392 25.9611C25.0598 26.1294 24.8762 26.2929 24.6882 26.4521C24.5388 26.5789 24.3864 26.7031 24.2314 26.8237C23.8757 27.1017 23.5072 27.3643 23.127 27.6098V15.4036L27.2596 15.4036Z" fill="#D6C8B0"/>
<path d="M27.2599 16.9648V23.645C27.0279 23.9738 26.7824 24.2928 26.5252 24.6013C26.4432 24.6993 26.3605 24.7966 26.276 24.8928C25.9485 25.2656 25.6025 25.6225 25.2395 25.9611C25.0601 26.1294 24.8764 26.2929 24.6885 26.4521V16.9648H27.2599Z" fill="#E8DBC4"/>
<path d="M26.525 19.1687V24.6011C26.4429 24.6991 26.3603 24.7964 26.2758 24.8926C25.9482 25.2654 25.6023 25.6223 25.2393 25.9609V19.1687C25.2393 18.8136 25.527 18.5259 25.8821 18.5259C26.0596 18.5259 26.2201 18.5981 26.3364 18.7144C26.4527 18.8307 26.525 18.9911 26.525 19.1687Z" fill="#F9EED7"/>
<path d="M12.1532 23.3315V29.7301C12.152 29.7301 12.1502 29.7301 12.1483 29.7295C11.9653 29.694 11.7828 29.6554 11.6022 29.6132C10.4427 29.345 9.33512 28.9422 8.29613 28.4218C8.11004 28.3293 7.92635 28.2326 7.74512 28.1322V23.3316H12.1532V23.3315Z" fill="#E8DBC4"/>
<path d="M22.2548 23.3315V28.1321C22.0736 28.2326 21.8899 28.3299 21.7038 28.4223C20.6648 28.9428 19.5573 29.345 18.3977 29.6131C18.2171 29.6554 18.0352 29.6939 17.8522 29.7295C17.8504 29.73 17.8485 29.73 17.8467 29.7307V23.3315H22.2548Z" fill="#E8DBC4"/>
<path d="M11.602 23.8826V29.6132C10.4424 29.345 9.33488 28.9421 8.2959 28.4217V23.8826H11.602Z" fill="#5C5E70"/>
<path d="M21.7036 23.8826V28.4224C20.6646 28.9428 19.557 29.345 18.3975 29.6132V23.8826H21.7036Z" fill="#5C5E70"/>
<path d="M11.7127 14.6338H7.99805V21.0574H11.7127V14.6338Z" fill="#E8DBC4"/>
<path d="M22.0008 14.6338H18.2861V21.0574H22.0008V14.6338Z" fill="#E8DBC4"/>
<path d="M11.2488 15.0984H8.46289V20.5933H11.2488V15.0984Z" fill="#5C5E70"/>
<path d="M21.5369 15.0984H18.751V20.5933H21.5369V15.0984Z" fill="#5C5E70"/>
<path d="M15.0003 10.1424C16.0251 10.1424 16.856 9.31152 16.856 8.28663C16.856 7.26174 16.0251 6.43091 15.0003 6.43091C13.9754 6.43091 13.1445 7.26174 13.1445 8.28663C13.1445 9.31152 13.9754 10.1424 15.0003 10.1424Z" fill="#D6C8B0"/>
<path d="M15 9.47136C15.6542 9.47136 16.1845 8.94102 16.1845 8.28683C16.1845 7.63263 15.6542 7.10229 15 7.10229C14.3458 7.10229 13.8154 7.63263 13.8154 8.28683C13.8154 8.94102 14.3458 9.47136 15 9.47136Z" fill="#5C5E70"/>
<path d="M15.5812 0H14.418V4.91443H15.5812V0Z" fill="#E8DBC4"/>
<path d="M20.2044 3.26145H15.582V0H20.2044L18.6738 1.6084L20.2044 3.26145Z" fill="#FF525D"/>
<path d="M10.5152 11.1988C10.5152 11.1499 10.5712 11.1289 10.6288 11.1289C10.6847 11.1289 10.7424 11.1499 10.7424 11.1988V12.0168C10.7424 12.3087 10.5571 12.4171 10.3229 12.4171C10.0869 12.4171 9.90332 12.3087 9.90332 12.0168V11.1988C9.90332 11.1499 9.95928 11.1289 10.0169 11.1289C10.0728 11.1289 10.1305 11.1499 10.1305 11.1988V12.0168C10.1305 12.1532 10.2021 12.2178 10.3227 12.2178C10.4433 12.2178 10.515 12.1532 10.515 12.0168V11.1988H10.5152Z" fill="#FF525D"/>
<path d="M11.7251 12.335L11.3492 11.6323V12.335C11.3492 12.3822 11.2916 12.4067 11.2357 12.4067C11.178 12.4067 11.1221 12.3822 11.1221 12.335V11.2006C11.1221 11.1516 11.178 11.1289 11.2357 11.1289C11.3178 11.1289 11.3511 11.1464 11.4052 11.2495L11.7425 11.9015V11.1988C11.7425 11.1499 11.7985 11.1289 11.8561 11.1289C11.912 11.1289 11.9696 11.1499 11.9696 11.1988V12.3349C11.9696 12.3822 11.912 12.4066 11.8561 12.4066C11.8019 12.4066 11.7548 12.3892 11.7251 12.335Z" fill="#FF525D"/>
<path d="M12.3535 11.1988C12.3535 11.1499 12.4095 11.1289 12.4671 11.1289C12.5231 11.1289 12.5807 11.1499 12.5807 11.1988V12.3349C12.5807 12.3822 12.523 12.4066 12.4671 12.4066C12.4095 12.4066 12.3535 12.3821 12.3535 12.3349V11.1988Z" fill="#FF525D"/>
<path d="M12.8795 11.2408C12.8778 11.2338 12.876 11.2268 12.876 11.2233C12.876 11.1673 12.9581 11.1289 13.0193 11.1289C13.0577 11.1289 13.0874 11.1412 13.0962 11.1743L13.3636 12.1217L13.6293 11.1743C13.638 11.1412 13.6677 11.1289 13.7061 11.1289C13.7673 11.1289 13.8495 11.169 13.8495 11.2233C13.8495 11.2286 13.8478 11.2338 13.8459 11.2408L13.5104 12.3402C13.4946 12.3926 13.43 12.4171 13.3635 12.4171C13.2971 12.4171 13.2342 12.3926 13.2167 12.3402L12.8795 11.2408Z" fill="#FF525D"/>
<path d="M14.3727 11.6778H14.6383C14.6838 11.6778 14.7101 11.7215 14.7101 11.7687C14.7101 11.8088 14.6873 11.8561 14.6383 11.8561H14.3727V12.2074H14.8674C14.9128 12.2074 14.9391 12.2546 14.9391 12.3088C14.9391 12.356 14.9164 12.4067 14.8674 12.4067H14.2451C14.1944 12.4067 14.1455 12.3822 14.1455 12.335V11.2006C14.1455 11.1533 14.1944 11.1289 14.2451 11.1289H14.8674C14.9164 11.1289 14.9391 11.1796 14.9391 11.2268C14.9391 11.281 14.9129 11.3282 14.8674 11.3282H14.3727V11.6778Z" fill="#FF525D"/>
<path d="M15.2461 11.1988C15.2461 11.1621 15.2758 11.1289 15.3195 11.1289H15.6656C15.8946 11.1289 16.0799 11.2163 16.0799 11.4942C16.0799 11.6952 15.9819 11.8036 15.8509 11.8438L16.0799 12.2686C16.0869 12.2773 16.0886 12.2895 16.0886 12.2966C16.0886 12.3542 16.0134 12.4154 15.947 12.4154C15.9155 12.4154 15.8858 12.3962 15.8683 12.3612L15.6201 11.8787H15.4733V12.3349C15.4733 12.3821 15.4174 12.4065 15.3597 12.4065C15.3038 12.4065 15.2462 12.3821 15.2462 12.3349V11.1988L15.2461 11.1988ZM15.4733 11.3282V11.7005H15.6656C15.7792 11.7005 15.8527 11.6533 15.8527 11.5152C15.8527 11.3772 15.7792 11.3282 15.6656 11.3282H15.4733Z" fill="#FF525D"/>
<path d="M16.947 12.0657C16.947 11.8036 16.386 11.8839 16.386 11.4697C16.386 11.2092 16.6097 11.1201 16.8107 11.1201C16.9139 11.1201 17.1429 11.1446 17.1429 11.26C17.1429 11.3002 17.1149 11.3806 17.0519 11.3806C16.9977 11.3806 16.9576 11.3141 16.8108 11.3141C16.6849 11.3141 16.6132 11.3648 16.6132 11.4487C16.6132 11.6654 17.1743 11.5903 17.1743 12.043C17.1743 12.293 16.9995 12.4223 16.7583 12.4223C16.5293 12.4223 16.3545 12.3069 16.3545 12.2056C16.3545 12.1566 16.3999 12.0832 16.4541 12.0832C16.5258 12.0832 16.5729 12.2178 16.7513 12.2178C16.8561 12.2178 16.947 12.1705 16.947 12.0657Z" fill="#FF525D"/>
<path d="M17.5039 11.1988C17.5039 11.1499 17.5598 11.1289 17.6175 11.1289C17.6734 11.1289 17.731 11.1499 17.731 11.1988V12.3349C17.731 12.3822 17.6734 12.4066 17.6175 12.4066C17.5598 12.4066 17.5039 12.3821 17.5039 12.3349V11.1988Z" fill="#FF525D"/>
<path d="M18.8432 11.1289C18.8921 11.1289 18.9148 11.1813 18.9148 11.2303C18.9148 11.2845 18.8886 11.3334 18.8432 11.3334H18.588V12.3349C18.588 12.3822 18.5303 12.4066 18.4744 12.4066C18.4168 12.4066 18.3608 12.3821 18.3608 12.3349V11.3334H18.1039C18.0585 11.3334 18.0322 11.2862 18.0322 11.2303C18.0322 11.1813 18.055 11.1289 18.1039 11.1289H18.8432Z" fill="#FF525D"/>
<path d="M19.4963 11.8945C19.4963 11.8858 19.4946 11.877 19.4911 11.8718L19.1293 11.246C19.1257 11.2373 19.124 11.2285 19.124 11.2233C19.124 11.1673 19.2131 11.1289 19.2743 11.1289C19.3111 11.1289 19.3286 11.1429 19.3443 11.1743L19.6099 11.6795L19.8774 11.1743C19.8931 11.1446 19.9088 11.1289 19.9455 11.1289C20.0067 11.1289 20.0958 11.1673 20.0958 11.2233C20.0958 11.2286 20.0958 11.2373 20.0906 11.246L19.7305 11.8718C19.727 11.877 19.7235 11.8858 19.7235 11.8945V12.335C19.7235 12.3822 19.6676 12.4067 19.6099 12.4067C19.554 12.4067 19.4964 12.3822 19.4964 12.335V11.8945H19.4963Z" fill="#FF525D"/>
<path d="M19.851 8.76075C20.0207 8.46678 20.3965 8.36612 20.6906 8.53581L25.3521 11.2271C25.6461 11.3968 25.7467 11.7727 25.5771 12.0667C25.4074 12.3607 25.0315 12.4614 24.7375 12.2917L20.0759 9.60034C19.782 9.43053 19.6813 9.05471 19.851 8.76075Z" fill="#F9EED7"/>
</g>
<defs>
<clipPath id="clip0_78_425">
<rect width="30" height="30" fill="white"/>
</clipPath>
</defs>
</svg>
